ISO-10303-21;
HEADER;
FILE_DESCRIPTION(('Shape Data from monstertruck'), '2;1');
FILE_NAME('continuity-g3.step', '2026-08-13 00:00:00', (''), (''), 'monstertruck', '', '');
FILE_SCHEMA(('AUTOMOTIVE_DESIGN'));
ENDSEC;
DATA;
#1 = APPLICATION_PROTOCOL_DEFINITION('international standard', 'automotive_design', 2000, #2);
#2 = APPLICATION_CONTEXT('core data for automotive mechanical design processes');
#3 = SHAPE_DEFINITION_REPRESENTATION(#4, #10);
#4 = PRODUCT_DEFINITION_SHAPE('','', #5);
#5 = PRODUCT_DEFINITION('design','', #6, #9);
#6 = PRODUCT_DEFINITION_FORMATION('','', #7);
#7 = PRODUCT('','','', (#8));
#8 = PRODUCT_CONTEXT('', #2, 'mechanical');
#9 = PRODUCT_DEFINITION_CONTEXT('part definition', #2, 'design');
#10 = SHAPE_REPRESENTATION('', (#16), #11);
#11 = (
    GEOMETRIC_REPRESENTATION_CONTEXT(3)
    GLOBAL_UNCERTAINTY_ASSIGNED_CONTEXT((#15))
    GLOBAL_UNIT_ASSIGNED_CONTEXT((#12, #13, #14))
    REPRESENTATION_CONTEXT('Context #1', '3D Context with UNIT and UNCERTAINTY')
);
#12 = ( LENGTH_UNIT() NAMED_UNIT(*) SI_UNIT(.MILLI.,.METRE.) );
#13 = ( NAMED_UNIT(*) PLANE_ANGLE_UNIT() SI_UNIT($,.RADIAN.) );
#14 = ( NAMED_UNIT(*) SI_UNIT($,.STERADIAN.) SOLID_ANGLE_UNIT() );
#15 = UNCERTAINTY_MEASURE_WITH_UNIT(LENGTH_MEASURE(1.0E-6), #12, 'distance_accuracy_value','confusion accuracy');
#16 = SHELL_BASED_SURFACE_MODEL('', (#17));
#17 = OPEN_SHELL('', (#18, #25));
#18 = ADVANCED_FACE('', (#19), #45, .T.);
#19 = FACE_BOUND('', #20, .T.);
#20 = EDGE_LOOP('', (#21, #22, #23, #24));
#21 = ORIENTED_EDGE('', *, *, #32, .T.);
#22 = ORIENTED_EDGE('', *, *, #33, .T.);
#23 = ORIENTED_EDGE('', *, *, #34, .T.);
#24 = ORIENTED_EDGE('', *, *, #35, .T.);
#25 = ADVANCED_FACE('', (#26), #82, .T.);
#26 = FACE_BOUND('', #27, .T.);
#27 = EDGE_LOOP('', (#28, #29, #30, #31));
#28 = ORIENTED_EDGE('', *, *, #36, .T.);
#29 = ORIENTED_EDGE('', *, *, #37, .T.);
#30 = ORIENTED_EDGE('', *, *, #38, .T.);
#31 = ORIENTED_EDGE('', *, *, #33, .F.);
#32 = EDGE_CURVE('', #39, #40, #119, .T.);
#33 = EDGE_CURVE('', #40, #41, #181, .T.);
#34 = EDGE_CURVE('', #41, #42, #299, .T.);
#35 = EDGE_CURVE('', #42, #39, #361, .T.);
#36 = EDGE_CURVE('', #40, #43, #423, .T.);
#37 = EDGE_CURVE('', #43, #44, #485, .T.);
#38 = EDGE_CURVE('', #44, #41, #547, .T.);
#39 = VERTEX_POINT('', #609);
#40 = VERTEX_POINT('', #610);
#41 = VERTEX_POINT('', #611);
#42 = VERTEX_POINT('', #612);
#43 = VERTEX_POINT('', #613);
#44 = VERTEX_POINT('', #614);
#45 = (
    BOUNDED_SURFACE()
    B_SPLINE_SURFACE(5, 5, ((#46, #47, #48, #49, #50, #51), (#52, #53, #54, #55, #56, #57), (#58, #59, #60, #61, #62, #63), (#64, #65, #66, #67, #68, #69), (#70, #71, #72, #73, #74, #75), (#76, #77, #78, #79, #80, #81)), .UNSPECIFIED., .U., .U., .U.)
    B_SPLINE_SURFACE_WITH_KNOTS((6, 6), (6, 6), (0.0, 1.0), (0.0, 1.0), .UNSPECIFIED.)
    GEOMETRIC_REPRESENTATION_ITEM()
    RATIONAL_B_SPLINE_SURFACE(((1.0, 1.0, 1.0, 1.0, 1.0, 1.0), (1.0, 1.0, 1.0, 1.0, 1.0, 1.0), (1.0, 1.0, 1.0, 1.0, 1.0, 1.0), (1.0, 1.0, 1.0, 1.0, 1.0, 1.0), (1.0, 1.0, 1.0, 1.0, 1.0, 1.0), (1.0, 1.0, 1.0, 1.0, 1.0, 1.0)))
    REPRESENTATION_ITEM('')
    SURFACE()
);
#46 = CARTESIAN_POINT('', (-1.0, 0.0, 0.0));
#47 = CARTESIAN_POINT('', (-1.0, 0.2, 0.0));
#48 = CARTESIAN_POINT('', (-1.0, 0.4, 0.0));
#49 = CARTESIAN_POINT('', (-1.0, 0.6, 0.0));
#50 = CARTESIAN_POINT('', (-1.0, 0.8, 0.0));
#51 = CARTESIAN_POINT('', (-1.0, 1.0, 0.0));
#52 = CARTESIAN_POINT('', (-0.8, 0.0, 0.0));
#53 = CARTESIAN_POINT('', (-0.8, 0.2, 0.0));
#54 = CARTESIAN_POINT('', (-0.8, 0.4, 0.0));
#55 = CARTESIAN_POINT('', (-0.8, 0.6, 0.0));
#56 = CARTESIAN_POINT('', (-0.8, 0.8, 0.0));
#57 = CARTESIAN_POINT('', (-0.8, 1.0, 0.0));
#58 = CARTESIAN_POINT('', (-0.6, 0.0, 0.0));
#59 = CARTESIAN_POINT('', (-0.6, 0.2, 0.0));
#60 = CARTESIAN_POINT('', (-0.6, 0.4, 0.0));
#61 = CARTESIAN_POINT('', (-0.6, 0.6, 0.0));
#62 = CARTESIAN_POINT('', (-0.6, 0.8, 0.0));
#63 = CARTESIAN_POINT('', (-0.6, 1.0, 0.0));
#64 = CARTESIAN_POINT('', (-0.4, 0.0, 0.0));
#65 = CARTESIAN_POINT('', (-0.4, 0.2, 0.0));
#66 = CARTESIAN_POINT('', (-0.4, 0.4, 0.0));
#67 = CARTESIAN_POINT('', (-0.4, 0.6, 0.0));
#68 = CARTESIAN_POINT('', (-0.4, 0.8, 0.0));
#69 = CARTESIAN_POINT('', (-0.4, 1.0, 0.0));
#70 = CARTESIAN_POINT('', (-0.2, 0.0, 0.0));
#71 = CARTESIAN_POINT('', (-0.2, 0.2, 0.0));
#72 = CARTESIAN_POINT('', (-0.2, 0.4, 0.0));
#73 = CARTESIAN_POINT('', (-0.2, 0.6, 0.0));
#74 = CARTESIAN_POINT('', (-0.2, 0.8, 0.0));
#75 = CARTESIAN_POINT('', (-0.2, 1.0, 0.0));
#76 = CARTESIAN_POINT('', (0.0, 0.0, 0.0));
#77 = CARTESIAN_POINT('', (0.0, 0.2, 0.0));
#78 = CARTESIAN_POINT('', (0.0, 0.4, 0.0));
#79 = CARTESIAN_POINT('', (0.0, 0.6, 0.0));
#80 = CARTESIAN_POINT('', (0.0, 0.8, 0.0));
#81 = CARTESIAN_POINT('', (0.0, 1.0, 0.0));
#82 = (
    BOUNDED_SURFACE()
    B_SPLINE_SURFACE(5, 5, ((#83, #84, #85, #86, #87, #88), (#89, #90, #91, #92, #93, #94), (#95, #96, #97, #98, #99, #100), (#101, #102, #103, #104, #105, #106), (#107, #108, #109, #110, #111, #112), (#113, #114, #115, #116, #117, #118)), .UNSPECIFIED., .U., .U., .U.)
    B_SPLINE_SURFACE_WITH_KNOTS((6, 6), (6, 6), (0.0, 1.0), (0.0, 1.0), .UNSPECIFIED.)
    GEOMETRIC_REPRESENTATION_ITEM()
    RATIONAL_B_SPLINE_SURFACE(((1.0, 1.0, 1.0, 1.0, 1.0, 1.0), (1.0, 1.0, 1.0, 1.0, 1.0, 1.0), (1.0, 1.0, 1.0, 1.0, 1.0, 1.0), (1.0, 1.0, 1.0, 1.0, 1.0, 1.0), (1.0, 1.0, 1.0, 1.0, 1.0, 1.0), (1.0, 1.0, 1.0, 1.0, 1.0, 1.0)))
    REPRESENTATION_ITEM('')
    SURFACE()
);
#83 = CARTESIAN_POINT('', (0.0, 0.0, 0.0));
#84 = CARTESIAN_POINT('', (0.0, 0.2, 0.0));
#85 = CARTESIAN_POINT('', (0.0, 0.4, 0.0));
#86 = CARTESIAN_POINT('', (0.0, 0.6, 0.0));
#87 = CARTESIAN_POINT('', (0.0, 0.8, 0.0));
#88 = CARTESIAN_POINT('', (0.0, 1.0, 0.0));
#89 = CARTESIAN_POINT('', (0.2, 0.0, 0.0));
#90 = CARTESIAN_POINT('', (0.2, 0.2, 0.0));
#91 = CARTESIAN_POINT('', (0.2, 0.4, 0.0));
#92 = CARTESIAN_POINT('', (0.2, 0.6, 0.0));
#93 = CARTESIAN_POINT('', (0.2, 0.8, 0.0));
#94 = CARTESIAN_POINT('', (0.2, 1.0, 0.0));
#95 = CARTESIAN_POINT('', (0.4, 0.0, 0.0));
#96 = CARTESIAN_POINT('', (0.4, 0.2, 0.0));
#97 = CARTESIAN_POINT('', (0.4, 0.4, 0.0));
#98 = CARTESIAN_POINT('', (0.4, 0.6, 0.0));
#99 = CARTESIAN_POINT('', (0.4, 0.8, 0.0));
#100 = CARTESIAN_POINT('', (0.4, 1.0, 0.0));
#101 = CARTESIAN_POINT('', (0.6, 0.0, 0.0));
#102 = CARTESIAN_POINT('', (0.6, 0.2, 0.0));
#103 = CARTESIAN_POINT('', (0.6, 0.4, 0.0));
#104 = CARTESIAN_POINT('', (0.6, 0.6, 0.0));
#105 = CARTESIAN_POINT('', (0.6, 0.8, 0.0));
#106 = CARTESIAN_POINT('', (0.6, 1.0, 0.0));
#107 = CARTESIAN_POINT('', (0.8, 0.0, 0.0));
#108 = CARTESIAN_POINT('', (0.8, 0.2, 0.0));
#109 = CARTESIAN_POINT('', (0.8, 0.4, 0.0));
#110 = CARTESIAN_POINT('', (0.8, 0.6, 0.0));
#111 = CARTESIAN_POINT('', (0.8, 0.8, 0.0));
#112 = CARTESIAN_POINT('', (0.8, 1.0, 0.0));
#113 = CARTESIAN_POINT('', (1.0, 0.0, 0.0));
#114 = CARTESIAN_POINT('', (1.0, 0.2, 0.0));
#115 = CARTESIAN_POINT('', (1.0, 0.4, 0.0));
#116 = CARTESIAN_POINT('', (1.0, 0.6, 0.0));
#117 = CARTESIAN_POINT('', (1.0, 0.8, 0.0));
#118 = CARTESIAN_POINT('', (1.0, 1.0, 0.0));
#119 = SURFACE_CURVE('', #120, (#137), .CURVE_3D.);
#120 = SURFACE_CURVE('', #121, (#125), .CURVE_3D.);
#121 = LINE('', #122, #123);
#122 = CARTESIAN_POINT('', (-1.0, 0.0, 0.0));
#123 = VECTOR('', #124, 1.0);
#124 = DIRECTION('', (1.0, 0.0, 0.0));
#125 = PCURVE('', #126, #131);
#126 = (
    BOUNDED_SURFACE()
    B_SPLINE_SURFACE(1, 1, ((#127, #128), (#129, #130)), .UNSPECIFIED., .U., .U., .U.)
    B_SPLINE_SURFACE_WITH_KNOTS((2, 2), (2, 2), (0.0, 1.0), (0.0, 1.0), .UNSPECIFIED.)
    GEOMETRIC_REPRESENTATION_ITEM()
    RATIONAL_B_SPLINE_SURFACE(((1.0, 1.0), (1.0, 1.0)))
    REPRESENTATION_ITEM('')
    SURFACE()
);
#127 = CARTESIAN_POINT('', (-1.0, 0.0, 0.0));
#128 = CARTESIAN_POINT('', (-1.0, 1.0, 0.0));
#129 = CARTESIAN_POINT('', (0.0, 0.0, 0.0));
#130 = CARTESIAN_POINT('', (0.0, 1.0, 0.0));
#131 = DEFINITIONAL_REPRESENTATION('', (#133), #132);
#132 = (
    GEOMETRIC_REPRESENTATION_CONTEXT(2)
    PARAMETRIC_REPRESENTATION_CONTEXT()
    REPRESENTATION_CONTEXT('2D SPACE', '')
);
#133 = LINE('', #134, #135);
#134 = CARTESIAN_POINT('', (0.0, 0.0));
#135 = VECTOR('', #136, 1.0);
#136 = DIRECTION('', (1.0, 0.0));
#137 = PCURVE('', #138, #175);
#138 = (
    BOUNDED_SURFACE()
    B_SPLINE_SURFACE(5, 5, ((#139, #140, #141, #142, #143, #144), (#145, #146, #147, #148, #149, #150), (#151, #152, #153, #154, #155, #156), (#157, #158, #159, #160, #161, #162), (#163, #164, #165, #166, #167, #168), (#169, #170, #171, #172, #173, #174)), .UNSPECIFIED., .U., .U., .U.)
    B_SPLINE_SURFACE_WITH_KNOTS((6, 6), (6, 6), (0.0, 1.0), (0.0, 1.0), .UNSPECIFIED.)
    GEOMETRIC_REPRESENTATION_ITEM()
    RATIONAL_B_SPLINE_SURFACE(((1.0, 1.0, 1.0, 1.0, 1.0, 1.0), (1.0, 1.0, 1.0, 1.0, 1.0, 1.0), (1.0, 1.0, 1.0, 1.0, 1.0, 1.0), (1.0, 1.0, 1.0, 1.0, 1.0, 1.0), (1.0, 1.0, 1.0, 1.0, 1.0, 1.0), (1.0, 1.0, 1.0, 1.0, 1.0, 1.0)))
    REPRESENTATION_ITEM('')
    SURFACE()
);
#139 = CARTESIAN_POINT('', (-1.0, 0.0, 0.0));
#140 = CARTESIAN_POINT('', (-1.0, 0.2, 0.0));
#141 = CARTESIAN_POINT('', (-1.0, 0.4, 0.0));
#142 = CARTESIAN_POINT('', (-1.0, 0.6, 0.0));
#143 = CARTESIAN_POINT('', (-1.0, 0.8, 0.0));
#144 = CARTESIAN_POINT('', (-1.0, 1.0, 0.0));
#145 = CARTESIAN_POINT('', (-0.8, 0.0, 0.0));
#146 = CARTESIAN_POINT('', (-0.8, 0.2, 0.0));
#147 = CARTESIAN_POINT('', (-0.8, 0.4, 0.0));
#148 = CARTESIAN_POINT('', (-0.8, 0.6, 0.0));
#149 = CARTESIAN_POINT('', (-0.8, 0.8, 0.0));
#150 = CARTESIAN_POINT('', (-0.8, 1.0, 0.0));
#151 = CARTESIAN_POINT('', (-0.6, 0.0, 0.0));
#152 = CARTESIAN_POINT('', (-0.6, 0.2, 0.0));
#153 = CARTESIAN_POINT('', (-0.6, 0.4, 0.0));
#154 = CARTESIAN_POINT('', (-0.6, 0.6, 0.0));
#155 = CARTESIAN_POINT('', (-0.6, 0.8, 0.0));
#156 = CARTESIAN_POINT('', (-0.6, 1.0, 0.0));
#157 = CARTESIAN_POINT('', (-0.4, 0.0, 0.0));
#158 = CARTESIAN_POINT('', (-0.4, 0.2, 0.0));
#159 = CARTESIAN_POINT('', (-0.4, 0.4, 0.0));
#160 = CARTESIAN_POINT('', (-0.4, 0.6, 0.0));
#161 = CARTESIAN_POINT('', (-0.4, 0.8, 0.0));
#162 = CARTESIAN_POINT('', (-0.4, 1.0, 0.0));
#163 = CARTESIAN_POINT('', (-0.2, 0.0, 0.0));
#164 = CARTESIAN_POINT('', (-0.2, 0.2, 0.0));
#165 = CARTESIAN_POINT('', (-0.2, 0.4, 0.0));
#166 = CARTESIAN_POINT('', (-0.2, 0.6, 0.0));
#167 = CARTESIAN_POINT('', (-0.2, 0.8, 0.0));
#168 = CARTESIAN_POINT('', (-0.2, 1.0, 0.0));
#169 = CARTESIAN_POINT('', (0.0, 0.0, 0.0));
#170 = CARTESIAN_POINT('', (0.0, 0.2, 0.0));
#171 = CARTESIAN_POINT('', (0.0, 0.4, 0.0));
#172 = CARTESIAN_POINT('', (0.0, 0.6, 0.0));
#173 = CARTESIAN_POINT('', (0.0, 0.8, 0.0));
#174 = CARTESIAN_POINT('', (0.0, 1.0, 0.0));
#175 = DEFINITIONAL_REPRESENTATION('', (#177), #176);
#176 = (
    GEOMETRIC_REPRESENTATION_CONTEXT(2)
    PARAMETRIC_REPRESENTATION_CONTEXT()
    REPRESENTATION_CONTEXT('2D SPACE', '')
);
#177 = LINE('', #178, #179);
#178 = CARTESIAN_POINT('', (0.0, 0.0));
#179 = VECTOR('', #180, 1.0);
#180 = DIRECTION('', (1.0, 0.0));
#181 = SURFACE_CURVE('', #182, (#211, #255), .CURVE_3D.);
#182 = SURFACE_CURVE('', #183, (#187, #199), .CURVE_3D.);
#183 = LINE('', #184, #185);
#184 = CARTESIAN_POINT('', (0.0, 0.0, 0.0));
#185 = VECTOR('', #186, 1.0);
#186 = DIRECTION('', (0.0, 1.0, 0.0));
#187 = PCURVE('', #188, #193);
#188 = (
    BOUNDED_SURFACE()
    B_SPLINE_SURFACE(1, 1, ((#189, #190), (#191, #192)), .UNSPECIFIED., .U., .U., .U.)
    B_SPLINE_SURFACE_WITH_KNOTS((2, 2), (2, 2), (0.0, 1.0), (0.0, 1.0), .UNSPECIFIED.)
    GEOMETRIC_REPRESENTATION_ITEM()
    RATIONAL_B_SPLINE_SURFACE(((1.0, 1.0), (1.0, 1.0)))
    REPRESENTATION_ITEM('')
    SURFACE()
);
#189 = CARTESIAN_POINT('', (-1.0, 0.0, 0.0));
#190 = CARTESIAN_POINT('', (-1.0, 1.0, 0.0));
#191 = CARTESIAN_POINT('', (0.0, 0.0, 0.0));
#192 = CARTESIAN_POINT('', (0.0, 1.0, 0.0));
#193 = DEFINITIONAL_REPRESENTATION('', (#195), #194);
#194 = (
    GEOMETRIC_REPRESENTATION_CONTEXT(2)
    PARAMETRIC_REPRESENTATION_CONTEXT()
    REPRESENTATION_CONTEXT('2D SPACE', '')
);
#195 = LINE('', #196, #197);
#196 = CARTESIAN_POINT('', (1.0, 0.0));
#197 = VECTOR('', #198, 1.0);
#198 = DIRECTION('', (0.0, 1.0));
#199 = PCURVE('', #200, #205);
#200 = (
    BOUNDED_SURFACE()
    B_SPLINE_SURFACE(1, 1, ((#201, #202), (#203, #204)), .UNSPECIFIED., .U., .U., .U.)
    B_SPLINE_SURFACE_WITH_KNOTS((2, 2), (2, 2), (0.0, 1.0), (0.0, 1.0), .UNSPECIFIED.)
    GEOMETRIC_REPRESENTATION_ITEM()
    RATIONAL_B_SPLINE_SURFACE(((1.0, 1.0), (1.0, 1.0)))
    REPRESENTATION_ITEM('')
    SURFACE()
);
#201 = CARTESIAN_POINT('', (0.0, 0.0, 0.0));
#202 = CARTESIAN_POINT('', (0.0, 1.0, 0.0));
#203 = CARTESIAN_POINT('', (1.0, 0.0, 0.0));
#204 = CARTESIAN_POINT('', (1.0, 1.0, 0.0));
#205 = DEFINITIONAL_REPRESENTATION('', (#207), #206);
#206 = (
    GEOMETRIC_REPRESENTATION_CONTEXT(2)
    PARAMETRIC_REPRESENTATION_CONTEXT()
    REPRESENTATION_CONTEXT('2D SPACE', '')
);
#207 = LINE('', #208, #209);
#208 = CARTESIAN_POINT('', (0.0, 0.0));
#209 = VECTOR('', #210, 1.0);
#210 = DIRECTION('', (0.0, 1.0));
#211 = PCURVE('', #212, #249);
#212 = (
    BOUNDED_SURFACE()
    B_SPLINE_SURFACE(5, 5, ((#213, #214, #215, #216, #217, #218), (#219, #220, #221, #222, #223, #224), (#225, #226, #227, #228, #229, #230), (#231, #232, #233, #234, #235, #236), (#237, #238, #239, #240, #241, #242), (#243, #244, #245, #246, #247, #248)), .UNSPECIFIED., .U., .U., .U.)
    B_SPLINE_SURFACE_WITH_KNOTS((6, 6), (6, 6), (0.0, 1.0), (0.0, 1.0), .UNSPECIFIED.)
    GEOMETRIC_REPRESENTATION_ITEM()
    RATIONAL_B_SPLINE_SURFACE(((1.0, 1.0, 1.0, 1.0, 1.0, 1.0), (1.0, 1.0, 1.0, 1.0, 1.0, 1.0), (1.0, 1.0, 1.0, 1.0, 1.0, 1.0), (1.0, 1.0, 1.0, 1.0, 1.0, 1.0), (1.0, 1.0, 1.0, 1.0, 1.0, 1.0), (1.0, 1.0, 1.0, 1.0, 1.0, 1.0)))
    REPRESENTATION_ITEM('')
    SURFACE()
);
#213 = CARTESIAN_POINT('', (-1.0, 0.0, 0.0));
#214 = CARTESIAN_POINT('', (-1.0, 0.2, 0.0));
#215 = CARTESIAN_POINT('', (-1.0, 0.4, 0.0));
#216 = CARTESIAN_POINT('', (-1.0, 0.6, 0.0));
#217 = CARTESIAN_POINT('', (-1.0, 0.8, 0.0));
#218 = CARTESIAN_POINT('', (-1.0, 1.0, 0.0));
#219 = CARTESIAN_POINT('', (-0.8, 0.0, 0.0));
#220 = CARTESIAN_POINT('', (-0.8, 0.2, 0.0));
#221 = CARTESIAN_POINT('', (-0.8, 0.4, 0.0));
#222 = CARTESIAN_POINT('', (-0.8, 0.6, 0.0));
#223 = CARTESIAN_POINT('', (-0.8, 0.8, 0.0));
#224 = CARTESIAN_POINT('', (-0.8, 1.0, 0.0));
#225 = CARTESIAN_POINT('', (-0.6, 0.0, 0.0));
#226 = CARTESIAN_POINT('', (-0.6, 0.2, 0.0));
#227 = CARTESIAN_POINT('', (-0.6, 0.4, 0.0));
#228 = CARTESIAN_POINT('', (-0.6, 0.6, 0.0));
#229 = CARTESIAN_POINT('', (-0.6, 0.8, 0.0));
#230 = CARTESIAN_POINT('', (-0.6, 1.0, 0.0));
#231 = CARTESIAN_POINT('', (-0.4, 0.0, 0.0));
#232 = CARTESIAN_POINT('', (-0.4, 0.2, 0.0));
#233 = CARTESIAN_POINT('', (-0.4, 0.4, 0.0));
#234 = CARTESIAN_POINT('', (-0.4, 0.6, 0.0));
#235 = CARTESIAN_POINT('', (-0.4, 0.8, 0.0));
#236 = CARTESIAN_POINT('', (-0.4, 1.0, 0.0));
#237 = CARTESIAN_POINT('', (-0.2, 0.0, 0.0));
#238 = CARTESIAN_POINT('', (-0.2, 0.2, 0.0));
#239 = CARTESIAN_POINT('', (-0.2, 0.4, 0.0));
#240 = CARTESIAN_POINT('', (-0.2, 0.6, 0.0));
#241 = CARTESIAN_POINT('', (-0.2, 0.8, 0.0));
#242 = CARTESIAN_POINT('', (-0.2, 1.0, 0.0));
#243 = CARTESIAN_POINT('', (0.0, 0.0, 0.0));
#244 = CARTESIAN_POINT('', (0.0, 0.2, 0.0));
#245 = CARTESIAN_POINT('', (0.0, 0.4, 0.0));
#246 = CARTESIAN_POINT('', (0.0, 0.6, 0.0));
#247 = CARTESIAN_POINT('', (0.0, 0.8, 0.0));
#248 = CARTESIAN_POINT('', (0.0, 1.0, 0.0));
#249 = DEFINITIONAL_REPRESENTATION('', (#251), #250);
#250 = (
    GEOMETRIC_REPRESENTATION_CONTEXT(2)
    PARAMETRIC_REPRESENTATION_CONTEXT()
    REPRESENTATION_CONTEXT('2D SPACE', '')
);
#251 = LINE('', #252, #253);
#252 = CARTESIAN_POINT('', (1.0, 0.0));
#253 = VECTOR('', #254, 1.0);
#254 = DIRECTION('', (0.0, 1.0));
#255 = PCURVE('', #256, #293);
#256 = (
    BOUNDED_SURFACE()
    B_SPLINE_SURFACE(5, 5, ((#257, #258, #259, #260, #261, #262), (#263, #264, #265, #266, #267, #268), (#269, #270, #271, #272, #273, #274), (#275, #276, #277, #278, #279, #280), (#281, #282, #283, #284, #285, #286), (#287, #288, #289, #290, #291, #292)), .UNSPECIFIED., .U., .U., .U.)
    B_SPLINE_SURFACE_WITH_KNOTS((6, 6), (6, 6), (0.0, 1.0), (0.0, 1.0), .UNSPECIFIED.)
    GEOMETRIC_REPRESENTATION_ITEM()
    RATIONAL_B_SPLINE_SURFACE(((1.0, 1.0, 1.0, 1.0, 1.0, 1.0), (1.0, 1.0, 1.0, 1.0, 1.0, 1.0), (1.0, 1.0, 1.0, 1.0, 1.0, 1.0), (1.0, 1.0, 1.0, 1.0, 1.0, 1.0), (1.0, 1.0, 1.0, 1.0, 1.0, 1.0), (1.0, 1.0, 1.0, 1.0, 1.0, 1.0)))
    REPRESENTATION_ITEM('')
    SURFACE()
);
#257 = CARTESIAN_POINT('', (0.0, 0.0, 0.0));
#258 = CARTESIAN_POINT('', (0.0, 0.2, 0.0));
#259 = CARTESIAN_POINT('', (0.0, 0.4, 0.0));
#260 = CARTESIAN_POINT('', (0.0, 0.6, 0.0));
#261 = CARTESIAN_POINT('', (0.0, 0.8, 0.0));
#262 = CARTESIAN_POINT('', (0.0, 1.0, 0.0));
#263 = CARTESIAN_POINT('', (0.2, 0.0, 0.0));
#264 = CARTESIAN_POINT('', (0.2, 0.2, 0.0));
#265 = CARTESIAN_POINT('', (0.2, 0.4, 0.0));
#266 = CARTESIAN_POINT('', (0.2, 0.6, 0.0));
#267 = CARTESIAN_POINT('', (0.2, 0.8, 0.0));
#268 = CARTESIAN_POINT('', (0.2, 1.0, 0.0));
#269 = CARTESIAN_POINT('', (0.4, 0.0, 0.0));
#270 = CARTESIAN_POINT('', (0.4, 0.2, 0.0));
#271 = CARTESIAN_POINT('', (0.4, 0.4, 0.0));
#272 = CARTESIAN_POINT('', (0.4, 0.6, 0.0));
#273 = CARTESIAN_POINT('', (0.4, 0.8, 0.0));
#274 = CARTESIAN_POINT('', (0.4, 1.0, 0.0));
#275 = CARTESIAN_POINT('', (0.6, 0.0, 0.0));
#276 = CARTESIAN_POINT('', (0.6, 0.2, 0.0));
#277 = CARTESIAN_POINT('', (0.6, 0.4, 0.0));
#278 = CARTESIAN_POINT('', (0.6, 0.6, 0.0));
#279 = CARTESIAN_POINT('', (0.6, 0.8, 0.0));
#280 = CARTESIAN_POINT('', (0.6, 1.0, 0.0));
#281 = CARTESIAN_POINT('', (0.8, 0.0, 0.0));
#282 = CARTESIAN_POINT('', (0.8, 0.2, 0.0));
#283 = CARTESIAN_POINT('', (0.8, 0.4, 0.0));
#284 = CARTESIAN_POINT('', (0.8, 0.6, 0.0));
#285 = CARTESIAN_POINT('', (0.8, 0.8, 0.0));
#286 = CARTESIAN_POINT('', (0.8, 1.0, 0.0));
#287 = CARTESIAN_POINT('', (1.0, 0.0, 0.0));
#288 = CARTESIAN_POINT('', (1.0, 0.2, 0.0));
#289 = CARTESIAN_POINT('', (1.0, 0.4, 0.0));
#290 = CARTESIAN_POINT('', (1.0, 0.6, 0.0));
#291 = CARTESIAN_POINT('', (1.0, 0.8, 0.0));
#292 = CARTESIAN_POINT('', (1.0, 1.0, 0.0));
#293 = DEFINITIONAL_REPRESENTATION('', (#295), #294);
#294 = (
    GEOMETRIC_REPRESENTATION_CONTEXT(2)
    PARAMETRIC_REPRESENTATION_CONTEXT()
    REPRESENTATION_CONTEXT('2D SPACE', '')
);
#295 = LINE('', #296, #297);
#296 = CARTESIAN_POINT('', (0.0, 0.0));
#297 = VECTOR('', #298, 1.0);
#298 = DIRECTION('', (0.0, 1.0));
#299 = SURFACE_CURVE('', #300, (#317), .CURVE_3D.);
#300 = SURFACE_CURVE('', #301, (#305), .CURVE_3D.);
#301 = LINE('', #302, #303);
#302 = CARTESIAN_POINT('', (0.0, 1.0, 0.0));
#303 = VECTOR('', #304, 1.0);
#304 = DIRECTION('', (-1.0, 0.0, 0.0));
#305 = PCURVE('', #306, #311);
#306 = (
    BOUNDED_SURFACE()
    B_SPLINE_SURFACE(1, 1, ((#307, #308), (#309, #310)), .UNSPECIFIED., .U., .U., .U.)
    B_SPLINE_SURFACE_WITH_KNOTS((2, 2), (2, 2), (0.0, 1.0), (0.0, 1.0), .UNSPECIFIED.)
    GEOMETRIC_REPRESENTATION_ITEM()
    RATIONAL_B_SPLINE_SURFACE(((1.0, 1.0), (1.0, 1.0)))
    REPRESENTATION_ITEM('')
    SURFACE()
);
#307 = CARTESIAN_POINT('', (-1.0, 0.0, 0.0));
#308 = CARTESIAN_POINT('', (-1.0, 1.0, 0.0));
#309 = CARTESIAN_POINT('', (0.0, 0.0, 0.0));
#310 = CARTESIAN_POINT('', (0.0, 1.0, 0.0));
#311 = DEFINITIONAL_REPRESENTATION('', (#313), #312);
#312 = (
    GEOMETRIC_REPRESENTATION_CONTEXT(2)
    PARAMETRIC_REPRESENTATION_CONTEXT()
    REPRESENTATION_CONTEXT('2D SPACE', '')
);
#313 = LINE('', #314, #315);
#314 = CARTESIAN_POINT('', (1.0, 1.0));
#315 = VECTOR('', #316, 1.0);
#316 = DIRECTION('', (-1.0, 0.0));
#317 = PCURVE('', #318, #355);
#318 = (
    BOUNDED_SURFACE()
    B_SPLINE_SURFACE(5, 5, ((#319, #320, #321, #322, #323, #324), (#325, #326, #327, #328, #329, #330), (#331, #332, #333, #334, #335, #336), (#337, #338, #339, #340, #341, #342), (#343, #344, #345, #346, #347, #348), (#349, #350, #351, #352, #353, #354)), .UNSPECIFIED., .U., .U., .U.)
    B_SPLINE_SURFACE_WITH_KNOTS((6, 6), (6, 6), (0.0, 1.0), (0.0, 1.0), .UNSPECIFIED.)
    GEOMETRIC_REPRESENTATION_ITEM()
    RATIONAL_B_SPLINE_SURFACE(((1.0, 1.0, 1.0, 1.0, 1.0, 1.0), (1.0, 1.0, 1.0, 1.0, 1.0, 1.0), (1.0, 1.0, 1.0, 1.0, 1.0, 1.0), (1.0, 1.0, 1.0, 1.0, 1.0, 1.0), (1.0, 1.0, 1.0, 1.0, 1.0, 1.0), (1.0, 1.0, 1.0, 1.0, 1.0, 1.0)))
    REPRESENTATION_ITEM('')
    SURFACE()
);
#319 = CARTESIAN_POINT('', (-1.0, 0.0, 0.0));
#320 = CARTESIAN_POINT('', (-1.0, 0.2, 0.0));
#321 = CARTESIAN_POINT('', (-1.0, 0.4, 0.0));
#322 = CARTESIAN_POINT('', (-1.0, 0.6, 0.0));
#323 = CARTESIAN_POINT('', (-1.0, 0.8, 0.0));
#324 = CARTESIAN_POINT('', (-1.0, 1.0, 0.0));
#325 = CARTESIAN_POINT('', (-0.8, 0.0, 0.0));
#326 = CARTESIAN_POINT('', (-0.8, 0.2, 0.0));
#327 = CARTESIAN_POINT('', (-0.8, 0.4, 0.0));
#328 = CARTESIAN_POINT('', (-0.8, 0.6, 0.0));
#329 = CARTESIAN_POINT('', (-0.8, 0.8, 0.0));
#330 = CARTESIAN_POINT('', (-0.8, 1.0, 0.0));
#331 = CARTESIAN_POINT('', (-0.6, 0.0, 0.0));
#332 = CARTESIAN_POINT('', (-0.6, 0.2, 0.0));
#333 = CARTESIAN_POINT('', (-0.6, 0.4, 0.0));
#334 = CARTESIAN_POINT('', (-0.6, 0.6, 0.0));
#335 = CARTESIAN_POINT('', (-0.6, 0.8, 0.0));
#336 = CARTESIAN_POINT('', (-0.6, 1.0, 0.0));
#337 = CARTESIAN_POINT('', (-0.4, 0.0, 0.0));
#338 = CARTESIAN_POINT('', (-0.4, 0.2, 0.0));
#339 = CARTESIAN_POINT('', (-0.4, 0.4, 0.0));
#340 = CARTESIAN_POINT('', (-0.4, 0.6, 0.0));
#341 = CARTESIAN_POINT('', (-0.4, 0.8, 0.0));
#342 = CARTESIAN_POINT('', (-0.4, 1.0, 0.0));
#343 = CARTESIAN_POINT('', (-0.2, 0.0, 0.0));
#344 = CARTESIAN_POINT('', (-0.2, 0.2, 0.0));
#345 = CARTESIAN_POINT('', (-0.2, 0.4, 0.0));
#346 = CARTESIAN_POINT('', (-0.2, 0.6, 0.0));
#347 = CARTESIAN_POINT('', (-0.2, 0.8, 0.0));
#348 = CARTESIAN_POINT('', (-0.2, 1.0, 0.0));
#349 = CARTESIAN_POINT('', (0.0, 0.0, 0.0));
#350 = CARTESIAN_POINT('', (0.0, 0.2, 0.0));
#351 = CARTESIAN_POINT('', (0.0, 0.4, 0.0));
#352 = CARTESIAN_POINT('', (0.0, 0.6, 0.0));
#353 = CARTESIAN_POINT('', (0.0, 0.8, 0.0));
#354 = CARTESIAN_POINT('', (0.0, 1.0, 0.0));
#355 = DEFINITIONAL_REPRESENTATION('', (#357), #356);
#356 = (
    GEOMETRIC_REPRESENTATION_CONTEXT(2)
    PARAMETRIC_REPRESENTATION_CONTEXT()
    REPRESENTATION_CONTEXT('2D SPACE', '')
);
#357 = LINE('', #358, #359);
#358 = CARTESIAN_POINT('', (1.0, 1.0));
#359 = VECTOR('', #360, 1.0);
#360 = DIRECTION('', (-1.0, 0.0));
#361 = SURFACE_CURVE('', #362, (#379), .CURVE_3D.);
#362 = SURFACE_CURVE('', #363, (#367), .CURVE_3D.);
#363 = LINE('', #364, #365);
#364 = CARTESIAN_POINT('', (-1.0, 1.0, 0.0));
#365 = VECTOR('', #366, 1.0);
#366 = DIRECTION('', (0.0, -1.0, 0.0));
#367 = PCURVE('', #368, #373);
#368 = (
    BOUNDED_SURFACE()
    B_SPLINE_SURFACE(1, 1, ((#369, #370), (#371, #372)), .UNSPECIFIED., .U., .U., .U.)
    B_SPLINE_SURFACE_WITH_KNOTS((2, 2), (2, 2), (0.0, 1.0), (0.0, 1.0), .UNSPECIFIED.)
    GEOMETRIC_REPRESENTATION_ITEM()
    RATIONAL_B_SPLINE_SURFACE(((1.0, 1.0), (1.0, 1.0)))
    REPRESENTATION_ITEM('')
    SURFACE()
);
#369 = CARTESIAN_POINT('', (-1.0, 0.0, 0.0));
#370 = CARTESIAN_POINT('', (-1.0, 1.0, 0.0));
#371 = CARTESIAN_POINT('', (0.0, 0.0, 0.0));
#372 = CARTESIAN_POINT('', (0.0, 1.0, 0.0));
#373 = DEFINITIONAL_REPRESENTATION('', (#375), #374);
#374 = (
    GEOMETRIC_REPRESENTATION_CONTEXT(2)
    PARAMETRIC_REPRESENTATION_CONTEXT()
    REPRESENTATION_CONTEXT('2D SPACE', '')
);
#375 = LINE('', #376, #377);
#376 = CARTESIAN_POINT('', (0.0, 1.0));
#377 = VECTOR('', #378, 1.0);
#378 = DIRECTION('', (0.0, -1.0));
#379 = PCURVE('', #380, #417);
#380 = (
    BOUNDED_SURFACE()
    B_SPLINE_SURFACE(5, 5, ((#381, #382, #383, #384, #385, #386), (#387, #388, #389, #390, #391, #392), (#393, #394, #395, #396, #397, #398), (#399, #400, #401, #402, #403, #404), (#405, #406, #407, #408, #409, #410), (#411, #412, #413, #414, #415, #416)), .UNSPECIFIED., .U., .U., .U.)
    B_SPLINE_SURFACE_WITH_KNOTS((6, 6), (6, 6), (0.0, 1.0), (0.0, 1.0), .UNSPECIFIED.)
    GEOMETRIC_REPRESENTATION_ITEM()
    RATIONAL_B_SPLINE_SURFACE(((1.0, 1.0, 1.0, 1.0, 1.0, 1.0), (1.0, 1.0, 1.0, 1.0, 1.0, 1.0), (1.0, 1.0, 1.0, 1.0, 1.0, 1.0), (1.0, 1.0, 1.0, 1.0, 1.0, 1.0), (1.0, 1.0, 1.0, 1.0, 1.0, 1.0), (1.0, 1.0, 1.0, 1.0, 1.0, 1.0)))
    REPRESENTATION_ITEM('')
    SURFACE()
);
#381 = CARTESIAN_POINT('', (-1.0, 0.0, 0.0));
#382 = CARTESIAN_POINT('', (-1.0, 0.2, 0.0));
#383 = CARTESIAN_POINT('', (-1.0, 0.4, 0.0));
#384 = CARTESIAN_POINT('', (-1.0, 0.6, 0.0));
#385 = CARTESIAN_POINT('', (-1.0, 0.8, 0.0));
#386 = CARTESIAN_POINT('', (-1.0, 1.0, 0.0));
#387 = CARTESIAN_POINT('', (-0.8, 0.0, 0.0));
#388 = CARTESIAN_POINT('', (-0.8, 0.2, 0.0));
#389 = CARTESIAN_POINT('', (-0.8, 0.4, 0.0));
#390 = CARTESIAN_POINT('', (-0.8, 0.6, 0.0));
#391 = CARTESIAN_POINT('', (-0.8, 0.8, 0.0));
#392 = CARTESIAN_POINT('', (-0.8, 1.0, 0.0));
#393 = CARTESIAN_POINT('', (-0.6, 0.0, 0.0));
#394 = CARTESIAN_POINT('', (-0.6, 0.2, 0.0));
#395 = CARTESIAN_POINT('', (-0.6, 0.4, 0.0));
#396 = CARTESIAN_POINT('', (-0.6, 0.6, 0.0));
#397 = CARTESIAN_POINT('', (-0.6, 0.8, 0.0));
#398 = CARTESIAN_POINT('', (-0.6, 1.0, 0.0));
#399 = CARTESIAN_POINT('', (-0.4, 0.0, 0.0));
#400 = CARTESIAN_POINT('', (-0.4, 0.2, 0.0));
#401 = CARTESIAN_POINT('', (-0.4, 0.4, 0.0));
#402 = CARTESIAN_POINT('', (-0.4, 0.6, 0.0));
#403 = CARTESIAN_POINT('', (-0.4, 0.8, 0.0));
#404 = CARTESIAN_POINT('', (-0.4, 1.0, 0.0));
#405 = CARTESIAN_POINT('', (-0.2, 0.0, 0.0));
#406 = CARTESIAN_POINT('', (-0.2, 0.2, 0.0));
#407 = CARTESIAN_POINT('', (-0.2, 0.4, 0.0));
#408 = CARTESIAN_POINT('', (-0.2, 0.6, 0.0));
#409 = CARTESIAN_POINT('', (-0.2, 0.8, 0.0));
#410 = CARTESIAN_POINT('', (-0.2, 1.0, 0.0));
#411 = CARTESIAN_POINT('', (0.0, 0.0, 0.0));
#412 = CARTESIAN_POINT('', (0.0, 0.2, 0.0));
#413 = CARTESIAN_POINT('', (0.0, 0.4, 0.0));
#414 = CARTESIAN_POINT('', (0.0, 0.6, 0.0));
#415 = CARTESIAN_POINT('', (0.0, 0.8, 0.0));
#416 = CARTESIAN_POINT('', (0.0, 1.0, 0.0));
#417 = DEFINITIONAL_REPRESENTATION('', (#419), #418);
#418 = (
    GEOMETRIC_REPRESENTATION_CONTEXT(2)
    PARAMETRIC_REPRESENTATION_CONTEXT()
    REPRESENTATION_CONTEXT('2D SPACE', '')
);
#419 = LINE('', #420, #421);
#420 = CARTESIAN_POINT('', (0.0, 1.0));
#421 = VECTOR('', #422, 1.0);
#422 = DIRECTION('', (0.0, -1.0));
#423 = SURFACE_CURVE('', #424, (#441), .CURVE_3D.);
#424 = SURFACE_CURVE('', #425, (#429), .CURVE_3D.);
#425 = LINE('', #426, #427);
#426 = CARTESIAN_POINT('', (0.0, 0.0, 0.0));
#427 = VECTOR('', #428, 1.0);
#428 = DIRECTION('', (1.0, 0.0, 0.0));
#429 = PCURVE('', #430, #435);
#430 = (
    BOUNDED_SURFACE()
    B_SPLINE_SURFACE(1, 1, ((#431, #432), (#433, #434)), .UNSPECIFIED., .U., .U., .U.)
    B_SPLINE_SURFACE_WITH_KNOTS((2, 2), (2, 2), (0.0, 1.0), (0.0, 1.0), .UNSPECIFIED.)
    GEOMETRIC_REPRESENTATION_ITEM()
    RATIONAL_B_SPLINE_SURFACE(((1.0, 1.0), (1.0, 1.0)))
    REPRESENTATION_ITEM('')
    SURFACE()
);
#431 = CARTESIAN_POINT('', (0.0, 0.0, 0.0));
#432 = CARTESIAN_POINT('', (0.0, 1.0, 0.0));
#433 = CARTESIAN_POINT('', (1.0, 0.0, 0.0));
#434 = CARTESIAN_POINT('', (1.0, 1.0, 0.0));
#435 = DEFINITIONAL_REPRESENTATION('', (#437), #436);
#436 = (
    GEOMETRIC_REPRESENTATION_CONTEXT(2)
    PARAMETRIC_REPRESENTATION_CONTEXT()
    REPRESENTATION_CONTEXT('2D SPACE', '')
);
#437 = LINE('', #438, #439);
#438 = CARTESIAN_POINT('', (0.0, 0.0));
#439 = VECTOR('', #440, 1.0);
#440 = DIRECTION('', (1.0, 0.0));
#441 = PCURVE('', #442, #479);
#442 = (
    BOUNDED_SURFACE()
    B_SPLINE_SURFACE(5, 5, ((#443, #444, #445, #446, #447, #448), (#449, #450, #451, #452, #453, #454), (#455, #456, #457, #458, #459, #460), (#461, #462, #463, #464, #465, #466), (#467, #468, #469, #470, #471, #472), (#473, #474, #475, #476, #477, #478)), .UNSPECIFIED., .U., .U., .U.)
    B_SPLINE_SURFACE_WITH_KNOTS((6, 6), (6, 6), (0.0, 1.0), (0.0, 1.0), .UNSPECIFIED.)
    GEOMETRIC_REPRESENTATION_ITEM()
    RATIONAL_B_SPLINE_SURFACE(((1.0, 1.0, 1.0, 1.0, 1.0, 1.0), (1.0, 1.0, 1.0, 1.0, 1.0, 1.0), (1.0, 1.0, 1.0, 1.0, 1.0, 1.0), (1.0, 1.0, 1.0, 1.0, 1.0, 1.0), (1.0, 1.0, 1.0, 1.0, 1.0, 1.0), (1.0, 1.0, 1.0, 1.0, 1.0, 1.0)))
    REPRESENTATION_ITEM('')
    SURFACE()
);
#443 = CARTESIAN_POINT('', (0.0, 0.0, 0.0));
#444 = CARTESIAN_POINT('', (0.0, 0.2, 0.0));
#445 = CARTESIAN_POINT('', (0.0, 0.4, 0.0));
#446 = CARTESIAN_POINT('', (0.0, 0.6, 0.0));
#447 = CARTESIAN_POINT('', (0.0, 0.8, 0.0));
#448 = CARTESIAN_POINT('', (0.0, 1.0, 0.0));
#449 = CARTESIAN_POINT('', (0.2, 0.0, 0.0));
#450 = CARTESIAN_POINT('', (0.2, 0.2, 0.0));
#451 = CARTESIAN_POINT('', (0.2, 0.4, 0.0));
#452 = CARTESIAN_POINT('', (0.2, 0.6, 0.0));
#453 = CARTESIAN_POINT('', (0.2, 0.8, 0.0));
#454 = CARTESIAN_POINT('', (0.2, 1.0, 0.0));
#455 = CARTESIAN_POINT('', (0.4, 0.0, 0.0));
#456 = CARTESIAN_POINT('', (0.4, 0.2, 0.0));
#457 = CARTESIAN_POINT('', (0.4, 0.4, 0.0));
#458 = CARTESIAN_POINT('', (0.4, 0.6, 0.0));
#459 = CARTESIAN_POINT('', (0.4, 0.8, 0.0));
#460 = CARTESIAN_POINT('', (0.4, 1.0, 0.0));
#461 = CARTESIAN_POINT('', (0.6, 0.0, 0.0));
#462 = CARTESIAN_POINT('', (0.6, 0.2, 0.0));
#463 = CARTESIAN_POINT('', (0.6, 0.4, 0.0));
#464 = CARTESIAN_POINT('', (0.6, 0.6, 0.0));
#465 = CARTESIAN_POINT('', (0.6, 0.8, 0.0));
#466 = CARTESIAN_POINT('', (0.6, 1.0, 0.0));
#467 = CARTESIAN_POINT('', (0.8, 0.0, 0.0));
#468 = CARTESIAN_POINT('', (0.8, 0.2, 0.0));
#469 = CARTESIAN_POINT('', (0.8, 0.4, 0.0));
#470 = CARTESIAN_POINT('', (0.8, 0.6, 0.0));
#471 = CARTESIAN_POINT('', (0.8, 0.8, 0.0));
#472 = CARTESIAN_POINT('', (0.8, 1.0, 0.0));
#473 = CARTESIAN_POINT('', (1.0, 0.0, 0.0));
#474 = CARTESIAN_POINT('', (1.0, 0.2, 0.0));
#475 = CARTESIAN_POINT('', (1.0, 0.4, 0.0));
#476 = CARTESIAN_POINT('', (1.0, 0.6, 0.0));
#477 = CARTESIAN_POINT('', (1.0, 0.8, 0.0));
#478 = CARTESIAN_POINT('', (1.0, 1.0, 0.0));
#479 = DEFINITIONAL_REPRESENTATION('', (#481), #480);
#480 = (
    GEOMETRIC_REPRESENTATION_CONTEXT(2)
    PARAMETRIC_REPRESENTATION_CONTEXT()
    REPRESENTATION_CONTEXT('2D SPACE', '')
);
#481 = LINE('', #482, #483);
#482 = CARTESIAN_POINT('', (0.0, 0.0));
#483 = VECTOR('', #484, 1.0);
#484 = DIRECTION('', (1.0, 0.0));
#485 = SURFACE_CURVE('', #486, (#503), .CURVE_3D.);
#486 = SURFACE_CURVE('', #487, (#491), .CURVE_3D.);
#487 = LINE('', #488, #489);
#488 = CARTESIAN_POINT('', (1.0, 0.0, 0.0));
#489 = VECTOR('', #490, 1.0);
#490 = DIRECTION('', (0.0, 1.0, 0.0));
#491 = PCURVE('', #492, #497);
#492 = (
    BOUNDED_SURFACE()
    B_SPLINE_SURFACE(1, 1, ((#493, #494), (#495, #496)), .UNSPECIFIED., .U., .U., .U.)
    B_SPLINE_SURFACE_WITH_KNOTS((2, 2), (2, 2), (0.0, 1.0), (0.0, 1.0), .UNSPECIFIED.)
    GEOMETRIC_REPRESENTATION_ITEM()
    RATIONAL_B_SPLINE_SURFACE(((1.0, 1.0), (1.0, 1.0)))
    REPRESENTATION_ITEM('')
    SURFACE()
);
#493 = CARTESIAN_POINT('', (0.0, 0.0, 0.0));
#494 = CARTESIAN_POINT('', (0.0, 1.0, 0.0));
#495 = CARTESIAN_POINT('', (1.0, 0.0, 0.0));
#496 = CARTESIAN_POINT('', (1.0, 1.0, 0.0));
#497 = DEFINITIONAL_REPRESENTATION('', (#499), #498);
#498 = (
    GEOMETRIC_REPRESENTATION_CONTEXT(2)
    PARAMETRIC_REPRESENTATION_CONTEXT()
    REPRESENTATION_CONTEXT('2D SPACE', '')
);
#499 = LINE('', #500, #501);
#500 = CARTESIAN_POINT('', (1.0, 0.0));
#501 = VECTOR('', #502, 1.0);
#502 = DIRECTION('', (0.0, 1.0));
#503 = PCURVE('', #504, #541);
#504 = (
    BOUNDED_SURFACE()
    B_SPLINE_SURFACE(5, 5, ((#505, #506, #507, #508, #509, #510), (#511, #512, #513, #514, #515, #516), (#517, #518, #519, #520, #521, #522), (#523, #524, #525, #526, #527, #528), (#529, #530, #531, #532, #533, #534), (#535, #536, #537, #538, #539, #540)), .UNSPECIFIED., .U., .U., .U.)
    B_SPLINE_SURFACE_WITH_KNOTS((6, 6), (6, 6), (0.0, 1.0), (0.0, 1.0), .UNSPECIFIED.)
    GEOMETRIC_REPRESENTATION_ITEM()
    RATIONAL_B_SPLINE_SURFACE(((1.0, 1.0, 1.0, 1.0, 1.0, 1.0), (1.0, 1.0, 1.0, 1.0, 1.0, 1.0), (1.0, 1.0, 1.0, 1.0, 1.0, 1.0), (1.0, 1.0, 1.0, 1.0, 1.0, 1.0), (1.0, 1.0, 1.0, 1.0, 1.0, 1.0), (1.0, 1.0, 1.0, 1.0, 1.0, 1.0)))
    REPRESENTATION_ITEM('')
    SURFACE()
);
#505 = CARTESIAN_POINT('', (0.0, 0.0, 0.0));
#506 = CARTESIAN_POINT('', (0.0, 0.2, 0.0));
#507 = CARTESIAN_POINT('', (0.0, 0.4, 0.0));
#508 = CARTESIAN_POINT('', (0.0, 0.6, 0.0));
#509 = CARTESIAN_POINT('', (0.0, 0.8, 0.0));
#510 = CARTESIAN_POINT('', (0.0, 1.0, 0.0));
#511 = CARTESIAN_POINT('', (0.2, 0.0, 0.0));
#512 = CARTESIAN_POINT('', (0.2, 0.2, 0.0));
#513 = CARTESIAN_POINT('', (0.2, 0.4, 0.0));
#514 = CARTESIAN_POINT('', (0.2, 0.6, 0.0));
#515 = CARTESIAN_POINT('', (0.2, 0.8, 0.0));
#516 = CARTESIAN_POINT('', (0.2, 1.0, 0.0));
#517 = CARTESIAN_POINT('', (0.4, 0.0, 0.0));
#518 = CARTESIAN_POINT('', (0.4, 0.2, 0.0));
#519 = CARTESIAN_POINT('', (0.4, 0.4, 0.0));
#520 = CARTESIAN_POINT('', (0.4, 0.6, 0.0));
#521 = CARTESIAN_POINT('', (0.4, 0.8, 0.0));
#522 = CARTESIAN_POINT('', (0.4, 1.0, 0.0));
#523 = CARTESIAN_POINT('', (0.6, 0.0, 0.0));
#524 = CARTESIAN_POINT('', (0.6, 0.2, 0.0));
#525 = CARTESIAN_POINT('', (0.6, 0.4, 0.0));
#526 = CARTESIAN_POINT('', (0.6, 0.6, 0.0));
#527 = CARTESIAN_POINT('', (0.6, 0.8, 0.0));
#528 = CARTESIAN_POINT('', (0.6, 1.0, 0.0));
#529 = CARTESIAN_POINT('', (0.8, 0.0, 0.0));
#530 = CARTESIAN_POINT('', (0.8, 0.2, 0.0));
#531 = CARTESIAN_POINT('', (0.8, 0.4, 0.0));
#532 = CARTESIAN_POINT('', (0.8, 0.6, 0.0));
#533 = CARTESIAN_POINT('', (0.8, 0.8, 0.0));
#534 = CARTESIAN_POINT('', (0.8, 1.0, 0.0));
#535 = CARTESIAN_POINT('', (1.0, 0.0, 0.0));
#536 = CARTESIAN_POINT('', (1.0, 0.2, 0.0));
#537 = CARTESIAN_POINT('', (1.0, 0.4, 0.0));
#538 = CARTESIAN_POINT('', (1.0, 0.6, 0.0));
#539 = CARTESIAN_POINT('', (1.0, 0.8, 0.0));
#540 = CARTESIAN_POINT('', (1.0, 1.0, 0.0));
#541 = DEFINITIONAL_REPRESENTATION('', (#543), #542);
#542 = (
    GEOMETRIC_REPRESENTATION_CONTEXT(2)
    PARAMETRIC_REPRESENTATION_CONTEXT()
    REPRESENTATION_CONTEXT('2D SPACE', '')
);
#543 = LINE('', #544, #545);
#544 = CARTESIAN_POINT('', (1.0, 0.0));
#545 = VECTOR('', #546, 1.0);
#546 = DIRECTION('', (0.0, 1.0));
#547 = SURFACE_CURVE('', #548, (#565), .CURVE_3D.);
#548 = SURFACE_CURVE('', #549, (#553), .CURVE_3D.);
#549 = LINE('', #550, #551);
#550 = CARTESIAN_POINT('', (1.0, 1.0, 0.0));
#551 = VECTOR('', #552, 1.0);
#552 = DIRECTION('', (-1.0, 0.0, 0.0));
#553 = PCURVE('', #554, #559);
#554 = (
    BOUNDED_SURFACE()
    B_SPLINE_SURFACE(1, 1, ((#555, #556), (#557, #558)), .UNSPECIFIED., .U., .U., .U.)
    B_SPLINE_SURFACE_WITH_KNOTS((2, 2), (2, 2), (0.0, 1.0), (0.0, 1.0), .UNSPECIFIED.)
    GEOMETRIC_REPRESENTATION_ITEM()
    RATIONAL_B_SPLINE_SURFACE(((1.0, 1.0), (1.0, 1.0)))
    REPRESENTATION_ITEM('')
    SURFACE()
);
#555 = CARTESIAN_POINT('', (0.0, 0.0, 0.0));
#556 = CARTESIAN_POINT('', (0.0, 1.0, 0.0));
#557 = CARTESIAN_POINT('', (1.0, 0.0, 0.0));
#558 = CARTESIAN_POINT('', (1.0, 1.0, 0.0));
#559 = DEFINITIONAL_REPRESENTATION('', (#561), #560);
#560 = (
    GEOMETRIC_REPRESENTATION_CONTEXT(2)
    PARAMETRIC_REPRESENTATION_CONTEXT()
    REPRESENTATION_CONTEXT('2D SPACE', '')
);
#561 = LINE('', #562, #563);
#562 = CARTESIAN_POINT('', (1.0, 1.0));
#563 = VECTOR('', #564, 1.0);
#564 = DIRECTION('', (-1.0, 0.0));
#565 = PCURVE('', #566, #603);
#566 = (
    BOUNDED_SURFACE()
    B_SPLINE_SURFACE(5, 5, ((#567, #568, #569, #570, #571, #572), (#573, #574, #575, #576, #577, #578), (#579, #580, #581, #582, #583, #584), (#585, #586, #587, #588, #589, #590), (#591, #592, #593, #594, #595, #596), (#597, #598, #599, #600, #601, #602)), .UNSPECIFIED., .U., .U., .U.)
    B_SPLINE_SURFACE_WITH_KNOTS((6, 6), (6, 6), (0.0, 1.0), (0.0, 1.0), .UNSPECIFIED.)
    GEOMETRIC_REPRESENTATION_ITEM()
    RATIONAL_B_SPLINE_SURFACE(((1.0, 1.0, 1.0, 1.0, 1.0, 1.0), (1.0, 1.0, 1.0, 1.0, 1.0, 1.0), (1.0, 1.0, 1.0, 1.0, 1.0, 1.0), (1.0, 1.0, 1.0, 1.0, 1.0, 1.0), (1.0, 1.0, 1.0, 1.0, 1.0, 1.0), (1.0, 1.0, 1.0, 1.0, 1.0, 1.0)))
    REPRESENTATION_ITEM('')
    SURFACE()
);
#567 = CARTESIAN_POINT('', (0.0, 0.0, 0.0));
#568 = CARTESIAN_POINT('', (0.0, 0.2, 0.0));
#569 = CARTESIAN_POINT('', (0.0, 0.4, 0.0));
#570 = CARTESIAN_POINT('', (0.0, 0.6, 0.0));
#571 = CARTESIAN_POINT('', (0.0, 0.8, 0.0));
#572 = CARTESIAN_POINT('', (0.0, 1.0, 0.0));
#573 = CARTESIAN_POINT('', (0.2, 0.0, 0.0));
#574 = CARTESIAN_POINT('', (0.2, 0.2, 0.0));
#575 = CARTESIAN_POINT('', (0.2, 0.4, 0.0));
#576 = CARTESIAN_POINT('', (0.2, 0.6, 0.0));
#577 = CARTESIAN_POINT('', (0.2, 0.8, 0.0));
#578 = CARTESIAN_POINT('', (0.2, 1.0, 0.0));
#579 = CARTESIAN_POINT('', (0.4, 0.0, 0.0));
#580 = CARTESIAN_POINT('', (0.4, 0.2, 0.0));
#581 = CARTESIAN_POINT('', (0.4, 0.4, 0.0));
#582 = CARTESIAN_POINT('', (0.4, 0.6, 0.0));
#583 = CARTESIAN_POINT('', (0.4, 0.8, 0.0));
#584 = CARTESIAN_POINT('', (0.4, 1.0, 0.0));
#585 = CARTESIAN_POINT('', (0.6, 0.0, 0.0));
#586 = CARTESIAN_POINT('', (0.6, 0.2, 0.0));
#587 = CARTESIAN_POINT('', (0.6, 0.4, 0.0));
#588 = CARTESIAN_POINT('', (0.6, 0.6, 0.0));
#589 = CARTESIAN_POINT('', (0.6, 0.8, 0.0));
#590 = CARTESIAN_POINT('', (0.6, 1.0, 0.0));
#591 = CARTESIAN_POINT('', (0.8, 0.0, 0.0));
#592 = CARTESIAN_POINT('', (0.8, 0.2, 0.0));
#593 = CARTESIAN_POINT('', (0.8, 0.4, 0.0));
#594 = CARTESIAN_POINT('', (0.8, 0.6, 0.0));
#595 = CARTESIAN_POINT('', (0.8, 0.8, 0.0));
#596 = CARTESIAN_POINT('', (0.8, 1.0, 0.0));
#597 = CARTESIAN_POINT('', (1.0, 0.0, 0.0));
#598 = CARTESIAN_POINT('', (1.0, 0.2, 0.0));
#599 = CARTESIAN_POINT('', (1.0, 0.4, 0.0));
#600 = CARTESIAN_POINT('', (1.0, 0.6, 0.0));
#601 = CARTESIAN_POINT('', (1.0, 0.8, 0.0));
#602 = CARTESIAN_POINT('', (1.0, 1.0, 0.0));
#603 = DEFINITIONAL_REPRESENTATION('', (#605), #604);
#604 = (
    GEOMETRIC_REPRESENTATION_CONTEXT(2)
    PARAMETRIC_REPRESENTATION_CONTEXT()
    REPRESENTATION_CONTEXT('2D SPACE', '')
);
#605 = LINE('', #606, #607);
#606 = CARTESIAN_POINT('', (1.0, 1.0));
#607 = VECTOR('', #608, 1.0);
#608 = DIRECTION('', (-1.0, 0.0));
#609 = CARTESIAN_POINT('', (-1.0, 0.0, 0.0));
#610 = CARTESIAN_POINT('', (0.0, 0.0, 0.0));
#611 = CARTESIAN_POINT('', (0.0, 1.0, 0.0));
#612 = CARTESIAN_POINT('', (-1.0, 1.0, 0.0));
#613 = CARTESIAN_POINT('', (1.0, 0.0, 0.0));
#614 = CARTESIAN_POINT('', (1.0, 1.0, 0.0));
ENDSEC;
END-ISO-10303-21;
